<?xml version="1.0" encoding="UTF-8"?>
<svg version="1.1" xmlns="http://www.w3.org/2000/svg" width="600" height="600">
<path d="M0 0 C2.35401684 2.43667697 4.56483839 4.86907794 6.64453125 7.54296875 C9.41877721 9.25904461 9.95122747 9.09704878 13.03515625 8.453125 C14.6971511 7.99351119 16.35183402 7.50697205 18 7 C18.90242432 6.74001221 19.80484863 6.48002441 20.73461914 6.2121582 C23.70439136 5.34901994 26.66442232 4.45662469 29.625 3.5625 C38.68600613 0.87329314 47.65075388 -1.52499758 57 -3 C58.13566406 -3.18304688 59.27132813 -3.36609375 60.44140625 -3.5546875 C77.62238177 -5.60951413 97.27532573 -5.45367664 114 -1 C114.75539063 -0.81195801 115.51078125 -0.62391602 116.2890625 -0.43017578 C133.99974296 4.0437642 151.95013892 11.06113641 166 23 C166.84433594 23.70769531 167.68867187 24.41539063 168.55859375 25.14453125 C181.22285743 36.15106787 195.54956894 51.7946477 197.234375 69.45703125 C197.25 71.6875 197.25 71.6875 197 75 C192.73939341 73.3413697 189.88893198 70.13342113 186.6875 67 C163.29904167 44.81615022 133.06689792 34.27609708 100.95898438 35.02294922 C74.09094507 36.19772332 47.47585695 43.95476669 24 57 C23.01515625 57.51175781 22.0303125 58.02351563 21.015625 58.55078125 C5.78220519 66.53326536 -7.94817248 77.0216581 -20.515625 88.69921875 C-22.66002512 90.68514905 -24.84043593 92.60235728 -27.0625 94.5 C-35.57478832 101.93522327 -43.08528331 110.06993875 -50 119 C-50.41330566 119.53157715 -50.82661133 120.0631543 -51.25244141 120.61083984 C-68.27012151 142.65894363 -81.24392727 166.94264119 -91 193 C-89.77796875 192.98839844 -88.5559375 192.97679687 -87.296875 192.96484375 C-71.25488199 192.86820524 -55.23467889 193.23761572 -39.19921875 193.64868164 C-28.12760355 193.92573177 -17.07360814 194.14102441 -6 193.78710938 C-0.29384892 193.68521382 3.77761677 194.64874601 9 197 C10 198 10 198 10.5 200.5625 C9.72519406 205.88929086 7.02569582 208.56044549 3 212 C-12.57751046 222.59039648 -27.39420351 225.18095022 -46 225.0625 C-47.36067544 225.05747487 -48.72135267 225.05291376 -50.08203125 225.04882812 C-53.38806725 225.03710459 -56.69401001 225.02069427 -60 225 C-54.50619183 234.87494468 -54.50619183 234.87494468 -47.4375 243.625 C-46.92920654 244.1622168 -46.42091309 244.69943359 -45.8972168 245.25292969 C-16.03401547 275.8097806 32.31685794 284.85029832 72.47265625 292.19140625 C73.45468018 292.37227783 74.4367041 292.55314941 75.44848633 292.73950195 C77.27086781 293.07158036 79.09488991 293.39481841 80.9206543 293.70776367 C82.95968069 294.074379 84.98278798 294.52788655 87 295 C88.98002088 298.96004177 88.18484684 303.95867244 88.1875 308.3125 C88.19974609 309.35857422 88.21199219 310.40464844 88.22460938 311.48242188 C88.22654297 312.49498047 88.22847656 313.50753906 88.23046875 314.55078125 C88.23457764 315.47544189 88.23868652 316.40010254 88.24291992 317.3527832 C87.97886637 320.23030349 87.11702857 322.35203947 86 325 C84.98270813 325.05375793 83.96541626 325.10751587 82.91729736 325.16290283 C73.10014175 325.68279203 63.28350575 326.21173634 53.46725845 326.74850845 C48.42646588 327.0238853 43.38556507 327.29657938 38.34423828 327.56201172 C16.54515209 328.71191953 -5.21279365 330.05626635 -26.953125 332.046875 C-27.85723869 332.12933723 -28.76135239 332.21179947 -29.69286346 332.29676056 C-40.82509181 333.32161534 -51.91640506 334.53749887 -63 336 C-63 336.66 -63 337.32 -63 338 C-61.89140625 338.12632812 -60.7828125 338.25265625 -59.640625 338.3828125 C-55.57640423 338.89039485 -51.57120551 339.60566688 -47.54614258 340.35791016 C-16.70906593 346.06060188 14.55425975 347.359892 45.82421875 348.53125 C47.0111734 348.57583847 48.19812805 348.62042694 49.42105103 348.66636658 C55.36374631 348.88794195 61.30658851 349.10150958 67.25 349.30297852 C69.43099037 349.38034901 71.61197999 349.45774058 73.79296875 349.53515625 C75.31998665 349.58349609 75.31998665 349.58349609 76.87785339 349.6328125 C77.80398941 349.66640869 78.73012543 349.70000488 79.68432617 349.73461914 C80.4972966 349.7618959 81.31026703 349.78917267 82.14787292 349.817276 C84 350 84 350 85 351 C84.91026147 370.04700213 84.91026147 370.04700213 79.125 377.375 C74.16862025 381.16517275 69.0801887 381.44076034 63.06640625 381.81640625 C62.17724014 381.87738495 61.28807404 381.93836365 60.3719635 382.00119019 C57.43602772 382.19810547 54.4994201 382.38089921 51.5625 382.5625 C50.55201599 382.62825226 49.54153198 382.69400452 48.50042725 382.76174927 C33.8548773 383.71002125 19.24268194 384.20765374 4.56918335 384.39904785 C-12.0149199 384.61564251 -27.7682793 385.27621451 -44 389 C-45.80680868 389.38638009 -47.61410637 389.7704802 -49.421875 390.15234375 C-53.62695591 391.05292534 -57.81587755 392.00679922 -62 393 C-39.43263503 398.98401215 -16.26320725 401.60894802 7 403 C7.87317871 403.0525293 8.74635742 403.10505859 9.64599609 403.15917969 C19.99433359 403.74893004 30.34942474 404.01734877 40.7109375 404.24609375 C41.66011551 404.26732803 42.60929352 404.28856232 43.5872345 404.31044006 C48.41082238 404.41744136 53.23441016 404.5178651 58.05834961 404.60766602 C59.84749563 404.64459066 61.6366396 404.68161428 63.42578125 404.71875 C64.67885574 404.73904518 64.67885574 404.73904518 65.95724487 404.75975037 C71.77362828 404.88681414 71.77362828 404.88681414 74 406 C73.55047999 412.696526 72.2161498 417.6952231 69.25 423.6875 C68.91484375 424.40744141 68.5796875 425.12738281 68.234375 425.86914062 C66.00547443 430.50001926 63.60218063 434.31286228 60 438 C57.30475406 438.90318693 54.67181077 439.18260874 51.84562683 439.37927246 C50.61567238 439.46751534 50.61567238 439.46751534 49.36087036 439.55754089 C48.02437943 439.64797417 48.02437943 439.64797417 46.66088867 439.74023438 C45.24310371 439.84045647 45.24310371 439.84045647 43.79667664 439.94270325 C41.74517466 440.08723919 39.69355538 440.23011747 37.64183617 440.37153625 C34.39228334 440.59552044 31.14305442 440.82376571 27.89387512 441.05310059 C22.1642161 441.45679788 16.43429744 441.8566684 10.70428467 442.25531006 C1.54333213 442.89270846 -7.61738757 443.53334238 -16.77777672 444.17878723 C-19.97432754 444.40307821 -23.17108772 444.62418893 -26.36787415 444.84509277 C-28.33616057 444.98318243 -30.30443803 445.12139995 -32.27270508 445.25976562 C-33.60008698 445.3501989 -33.60008698 445.3501989 -34.95428467 445.44245911 C-39.67765122 445.77787581 -44.3215032 446.2659865 -49 447 C-41.28376585 449.78014487 -33.79667387 451.84864438 -25.6875 453.0625 C-24.62845459 453.2260498 -23.56940918 453.38959961 -22.47827148 453.55810547 C-0.13387298 456.86994242 22.48120452 458.38384627 45 460 C44.51367312 465.08363564 42.95549634 468.05698863 40 472.1875 C39.60063232 472.74703369 39.20126465 473.30656738 38.78979492 473.88305664 C34.7713816 479.44683197 30.54303199 484.85440182 26 490 C25.59429936 490.49627207 25.18859873 490.99254414 24.77060413 491.50385475 C20.71788405 496.08885617 17.39572203 497.05065644 11.41870117 497.59912109 C10.57706421 497.69753296 9.73542725 497.79594482 8.86828613 497.89733887 C6.09535662 498.21491143 3.32004362 498.49464669 0.54296875 498.7734375 C-1.40335632 498.98703141 -3.34945545 499.20269321 -5.29533386 499.4203186 C-9.37658018 499.87132953 -13.45915606 500.30502714 -17.54370117 500.72509766 C-22.73267333 501.25900989 -27.91771872 501.82328645 -33.10216236 502.39935875 C-37.12607619 502.84505109 -41.15107064 503.2802208 -45.17651939 503.71181107 C-47.08571831 503.91657941 -48.9947337 504.12306764 -50.90354347 504.33143234 C-62.65080862 505.601352 -74.18348333 506.2752314 -86 506 C-88.99093491 498.24383064 -91.86448092 490.47251377 -94.49609375 482.5859375 C-107.60357763 442.58124108 -107.60357763 442.58124108 -132.7578125 409.38671875 C-134 408 -134 408 -134 405 C-134.82177734 404.90138672 -134.82177734 404.90138672 -135.66015625 404.80078125 C-138.99073779 403.66093281 -140.89281015 401.59807305 -143.4375 399.1875 C-147.47467101 395.38437618 -147.47467101 395.38437618 -151.84765625 391.98828125 C-154 390 -154 390 -154.71484375 387.546875 C-153.62980423 383.68105114 -150.78901778 382.29359827 -147.5625 380.25 C-132.30647628 369.9052409 -122.2735813 356.10738957 -118.3203125 337.86328125 C-117.418645 332.84235193 -116.90945092 328.10847736 -117 323 C-117.49628906 324.02738281 -117.99257812 325.05476563 -118.50390625 326.11328125 C-124.73384365 338.88071188 -131.63075219 350.23461651 -141 361 C-141.56332031 361.66 -142.12664062 362.32 -142.70703125 363 C-155.37520325 376.8086157 -173.49759053 379.39633062 -191.18359375 381.421875 C-198.58728052 382.33844668 -205.39218261 383.81991186 -212.47070312 386.1953125 C-215 387 -215 387 -217 387 C-216.4452628 391.91783881 -215.36359875 396.08587976 -213.5625 400.6875 C-206.61935276 419.71092077 -207.19868811 441.58324703 -214.78515625 460.44921875 C-218.84672272 468.97720237 -223.99943272 476.71340608 -232 482 C-234.7734375 482.7109375 -234.7734375 482.7109375 -237 483 C-236.51092772 479.86993738 -235.68147126 477.10948015 -234.5 474.1875 C-231.72631515 466.94885904 -231.85901085 459.64474512 -232 452 C-232.4021875 453.12535156 -232.4021875 453.12535156 -232.8125 454.2734375 C-236.7625271 464.59028461 -242.8215529 474.73971011 -253 480 C-254.32 480 -255.64 480 -257 480 C-256.22932317 474.3950776 -254.57612421 469.27141761 -252.81640625 463.921875 C-248.94275457 451.9112627 -248.58495074 440.69406059 -254.39453125 429.25390625 C-256.82468781 425.01497494 -258.7937361 421.63188612 -263 419 C-265.34616319 418.63774891 -265.34616319 418.63774891 -267.8515625 418.8125 C-268.78613281 418.83570313 -269.72070312 418.85890625 -270.68359375 418.8828125 C-272.62113112 418.96000522 -274.5586325 419.03810745 -276.49609375 419.1171875 C-285.72997588 419.34456079 -293.61526108 417.72317267 -301 412 C-303 410 -303 410 -303.125 407.375 C-303.08375 406.59125 -303.0425 405.8075 -303 405 C-302.19949219 404.68361572 -302.19949219 404.68361572 -301.3828125 404.36083984 C-298.91674023 403.37793085 -296.45852791 402.37662248 -294 401.375 C-292.74123047 400.87806641 -292.74123047 400.87806641 -291.45703125 400.37109375 C-284.60531133 397.55604603 -278.1914878 394.2872317 -274 388 C-275.24873901 388.53741821 -275.24873901 388.53741821 -276.52270508 389.08569336 C-279.61408547 390.41544233 -282.70593013 391.74409995 -285.7980957 393.07202148 C-287.1358485 393.64678014 -288.47341521 394.22197212 -289.81079102 394.79760742 C-291.73404871 395.62532954 -293.65797205 396.45148677 -295.58203125 397.27734375 C-296.73936768 397.77484131 -297.8967041 398.27233887 -299.08911133 398.78491211 C-305.06088838 401.27770204 -310.13488575 402.04686867 -316.25 399.8125 C-321.2654567 396.50685808 -323.41156259 393.10387018 -324.6953125 387.203125 C-325.21206766 383.46658771 -325.15674373 379.76184942 -325 376 C-324.04738281 375.56429688 -323.09476562 375.12859375 -322.11328125 374.6796875 C-320.84598806 374.07889665 -319.57908122 373.47729037 -318.3125 372.875 C-317.68666016 372.59140625 -317.06082031 372.3078125 -316.41601562 372.015625 C-311.70258034 369.74527921 -309.049783 367.26630127 -306 363 C-305.67 362.01 -305.34 361.02 -305 360 C-306.50240234 361.19109375 -306.50240234 361.19109375 -308.03515625 362.40625 C-309.37692679 363.43838119 -310.71941292 364.46958258 -312.0625 365.5 C-313.04766602 366.28697266 -313.04766602 366.28697266 -314.05273438 367.08984375 C-317.50330812 369.70752038 -319.44527427 370.93404176 -323.84375 371.45703125 C-327 371 -327 371 -329.4375 369.1875 C-332.27610004 363.39675592 -331.88009004 356.88780275 -329.875 350.8125 C-326.92367606 344.05479565 -321.99379543 338.83411277 -316.76953125 333.7578125 C-313.65936301 330.6682414 -310.84288567 327.33418048 -308 324 C-307.5870166 323.51724609 -307.1740332 323.03449219 -306.74853516 322.53710938 C-302.10744323 317.10771802 -297.49342766 311.66577727 -293.0625 306.0625 C-287.89770191 299.54805302 -282.43945038 293.28487815 -277 287 C-276.360625 286.2575 -275.72125 285.515 -275.0625 284.75 C-265.71689623 273.96661103 -256.13050265 263.36005708 -245.31640625 254.02734375 C-240.68798436 249.97649896 -236.17628078 245.80015477 -231.69335938 241.58935547 C-230.57306388 240.53786705 -229.44940655 239.48994792 -228.32226562 238.44580078 C-219.88608243 230.59615695 -212.5689941 222.80678063 -211.8671875 210.7109375 C-211.88112125 206.54474629 -212.025086 202.46167417 -212.48828125 198.3203125 C-217.61070728 143.38321464 -205.53858104 86.27990219 -170 43 C-167.08134452 39.58494327 -164.06195564 36.28600117 -161 33 C-159.6435724 31.43946234 -158.28936667 29.87699037 -156.9375 28.3125 C-153.23104936 24.15546124 -149.31896601 20.51099618 -145 17 C-144.07703125 16.23945312 -143.1540625 15.47890625 -142.203125 14.6953125 C-124.93274076 0.76243964 -105.21002433 -8.72661252 -84 -15 C-82.96488281 -15.32097656 -81.92976562 -15.64195313 -80.86328125 -15.97265625 C-53.27516415 -23.26840678 -22.58998891 -17.18742651 0 0 Z M-103 30 C-103.8971875 30.67289063 -104.794375 31.34578125 -105.71875 32.0390625 C-136.85961983 56.4938044 -153.13416563 90.00033749 -158 129 C-159.32075499 141.97067539 -160.1773957 154.95977321 -160 168 C-157.69 168 -155.38 168 -153 168 C-152.76925781 167.46745605 -152.53851563 166.93491211 -152.30078125 166.38623047 C-142.79994936 144.57280864 -131.23580774 125.32580088 -116 107 C-114.39356639 105.06437917 -112.78944754 103.1268352 -111.1875 101.1875 C-110.45917969 100.31480469 -109.73085938 99.44210938 -108.98046875 98.54296875 C-106.94693048 96.04548141 -106.94693048 96.04548141 -105.390625 93.26171875 C-104 91 -104 91 -101.5625 89.625 C-98.65911855 87.78383127 -97.78126628 85.94518667 -96.21484375 82.95703125 C-90.08203455 73.07748974 -78.24258331 65.00710745 -68.9375 58.3125 C-65.0348383 55.4959319 -61.19276367 52.61777803 -57.375 49.6875 C-38.64791229 35.64218422 -18.22502776 24.74186418 3 15 C2.67 14.01 2.34 13.02 2 12 C-0.46551049 10.82123404 -2.8112411 9.84737055 -5.375 8.9375 C-6.1067041 8.67437012 -6.8384082 8.41124023 -7.59228516 8.14013672 C-41.1428591 -3.59924378 -75.79551114 9.59663336 -103 30 Z M-163 249 C-162.67 250.32 -162.34 251.64 -162 253 C-161.34 252.67 -160.68 252.34 -160 252 C-160.33 251.01 -160.66 250.02 -161 249 C-161.66 249 -162.32 249 -163 249 Z " fill="#F9F9F9" transform="translate(369,52)"/>
<path d="M0 0 C1.19882813 -0.01675781 2.39765625 -0.03351563 3.6328125 -0.05078125 C7.08927257 0.33650885 8.51659841 0.78605505 10.875 3.3125 C11.39738806 9.26772388 11.39738806 9.26772388 9.875 12.3125 C9.1325 12.75722656 8.39 13.20195312 7.625 13.66015625 C4.68479879 15.42678283 2.38850731 17.42107838 -0.125 19.75 C-10.67344664 29.4908312 -10.67344664 29.4908312 -20.125 29.3125 C-20.125 28.6525 -20.125 27.9925 -20.125 27.3125 C-21.775 27.6425 -23.425 27.9725 -25.125 28.3125 C-25.125 27.6525 -25.125 26.9925 -25.125 26.3125 C-26.115 26.6425 -27.105 26.9725 -28.125 27.3125 C-28.125 26.6525 -28.125 25.9925 -28.125 25.3125 C-28.785 25.3125 -29.445 25.3125 -30.125 25.3125 C-29.61731681 20.8702721 -27.96678232 18.6871165 -25.125 15.3125 C-24.795 14.3225 -24.465 13.3325 -24.125 12.3125 C-22.81233482 10.95881404 -21.47932675 9.62450404 -20.125 8.3125 C-19.795 7.6525 -19.465 6.9925 -19.125 6.3125 C-17.805 6.3125 -16.485 6.3125 -15.125 6.3125 C-14.91875 5.69375 -14.7125 5.075 -14.5 4.4375 C-11.43149187 -0.30473984 -5.15589063 0.01670375 0 0 Z " fill="#090909" transform="translate(195.125,295.6875)"/>
<path d="M0 0 C-1.37933937 4.17678323 -3.2377704 6.60850555 -6.34204102 9.69848633 C-7.2395961 10.59904251 -8.13715118 11.49959869 -9.06190491 12.42744446 C-10.04233859 13.39587644 -11.02301135 14.36406642 -12.00390625 15.33203125 C-13.00814619 16.33321182 -14.0117949 17.33498576 -15.01487732 18.33732605 C-17.11272995 20.4305867 -19.2153844 22.51885221 -21.32202148 24.60327148 C-24.02816972 27.28102855 -26.72546292 29.96748929 -29.41967869 32.65724659 C-31.48915686 34.72257943 -33.56145107 36.7850654 -35.63480949 38.8465023 C-36.63087784 39.83685875 -37.62646954 40.82769481 -38.62158394 41.81900978 C-40.00755221 43.19814156 -41.39735383 44.57341782 -42.78735352 45.94848633 C-43.57852066 46.73282547 -44.36968781 47.51716461 -45.18482971 48.32527161 C-47 50 -47 50 -48 50 C-48.29846301 46.96824418 -48.38842748 45.50546017 -46.49609375 43.04296875 C-45.81675781 42.43066406 -45.13742188 41.81835938 -44.4375 41.1875 C-41.67315249 38.59743709 -39.07278605 36.01677589 -36.625 33.125 C-30.68940437 26.24295404 -24.19970736 19.89618286 -17.28515625 14.00390625 C-15.38185094 12.3348539 -13.52828308 10.63507666 -11.68359375 8.90234375 C-11.09747314 8.35304199 -10.51135254 7.80374023 -9.9074707 7.23779297 C-8.73169097 6.1327114 -7.55955879 5.0237343 -6.39135742 3.91064453 C-2.22079278 0 -2.22079278 0 0 0 Z " fill="#BBBBBB" transform="translate(141,292)"/>
<path d="M0 0 C-1.56751867 3.78583996 -3.93577091 6.16557849 -6.83203125 9.02734375 C-7.30565598 9.49813858 -7.7792807 9.96893341 -8.26725769 10.45399475 C-9.77768755 11.9532789 -11.29491149 13.4454658 -12.8125 14.9375 C-13.82142518 15.9363829 -14.82989345 16.93572751 -15.83789062 17.93554688 C-17.70398404 19.78537161 -19.57314888 21.63187321 -21.44458008 23.47631836 C-26.82779358 28.709686 -26.82779358 28.709686 -31.8125 34.3125 C-32.534375 35.199375 -33.25625 36.08625 -34 37 C-34.66 36.34 -35.32 35.68 -36 35 C-32.65030675 29.09815951 -32.65030675 29.09815951 -30 27 C-29.01 27 -28.02 27 -27 27 C-26.91363281 26.43410156 -26.82726562 25.86820313 -26.73828125 25.28515625 C-24.64467169 18.80493618 -7.6119023 0 0 0 Z " fill="#A5A5A5" transform="translate(297,113)"/>
<path d="M0 0 C0 3 0 3 -2.01953125 5.36010742 C-3.40205078 6.71906128 -3.40205078 6.71906128 -4.8125 8.10546875 C-5.30081299 8.5895369 -5.78912598 9.07360504 -6.29223633 9.57234192 C-7.85459826 11.1179014 -9.42706327 12.65271107 -11 14.1875 C-12.06057762 15.23303282 -13.12048229 16.27924873 -14.1796875 17.32617188 C-16.77869434 19.89208902 -19.3868639 22.44846467 -22 25 C-22.99 24.67 -23.98 24.34 -25 24 C-9.56611025 8.3701722 -9.56611025 8.3701722 -3.41796875 3.19921875 C-1.85892049 1.91444826 -1.85892049 1.91444826 0 0 Z " fill="#C2C2C2" transform="translate(128,302)"/>
<path d="M0 0 C0.66 0.66 1.32 1.32 2 2 C1.52949219 2.39832031 1.05898438 2.79664063 0.57421875 3.20703125 C-0.04839844 3.73683594 -0.67101562 4.26664063 -1.3125 4.8125 C-1.92738281 5.33457031 -2.54226563 5.85664063 -3.17578125 6.39453125 C-4.85424679 7.87172469 -6.43882034 9.40039131 -8 11 C-8.33 10.34 -8.66 9.68 -9 9 C-6.73323742 4.57981296 -4.76649079 1.58883026 0 0 Z " fill="#AFAFAF" transform="translate(270,139)"/>
</svg>
